<svg width="20" height="20" viewBox="0 0 20 20" fill="none" xmlns="http://www.w3.org/2000/svg">
<g clip-path="url(#clip0_2123_5162)">
<path d="M12.5003 13.0208C12.5003 12.0815 12.1272 11.1806 11.463 10.5165C10.7988 9.85226 9.89797 9.47913 8.95866 9.47913C8.01935 9.47913 7.11851 9.85226 6.45432 10.5165C5.79013 11.1806 5.41699 12.0815 5.41699 13.0208V13.3333H7.91699V13.0208C7.91699 12.7445 8.02674 12.4796 8.22209 12.2842C8.41744 12.0889 8.68239 11.9791 8.95866 11.9791C9.23493 11.9791 9.49988 12.0889 9.69523 12.2842C9.89058 12.4796 10.0003 12.7445 10.0003 13.0208C10.0003 13.5416 9.00699 14.2866 8.20866 14.885C6.90033 15.8666 5.41699 16.9791 5.41699 18.75C5.41699 19.0815 5.54869 19.3994 5.78311 19.6338C6.01753 19.8683 6.33547 20 6.66699 20H12.5003V17.5H8.91699C9.17533 17.2883 9.45449 17.0833 9.71283 16.8858C11.017 15.9041 12.5003 14.7916 12.5003 13.0208Z" fill="#94A0B8"/>
<path d="M17.4997 10V14.1667H16.8747C16.5985 14.1662 16.3338 14.0563 16.1386 13.8611C15.9433 13.6658 15.8334 13.4011 15.833 13.125V10H13.333V13.125C13.3341 14.064 13.7076 14.9642 14.3716 15.6281C15.0355 16.2921 15.9357 16.6656 16.8747 16.6667H17.4997V20H19.9997V10H17.4997Z" fill="#94A0B8"/>
<path d="M17.0594 2.94087C15.3279 1.19929 13.0152 0.157145 10.5636 0.0137464C8.11194 -0.129652 5.6935 0.635766 3.77082 2.1636C1.84813 3.69143 0.556156 5.87444 0.14201 8.29508C-0.272137 10.7157 0.220615 13.2041 1.52602 15.2842L3.35268 13.4567C2.75529 12.3146 2.46287 11.0376 2.50372 9.74938C2.54457 8.46113 2.91732 7.20525 3.58588 6.1033C4.25444 5.00136 5.19617 4.09068 6.31989 3.45942C7.44362 2.82816 8.71129 2.4977 10.0002 2.50003C11.987 2.50697 13.8904 3.3 15.2943 4.70586L13.3335 6.6667H18.2577C18.3771 6.66681 18.4954 6.64337 18.6057 6.59772C18.7161 6.55206 18.8164 6.4851 18.9008 6.40065C18.9853 6.31621 19.0522 6.21594 19.0979 6.10558C19.1435 5.99523 19.167 5.87696 19.1668 5.75753V0.833365L17.0594 2.94087Z" fill="#94A0B8"/>
</g>
<defs>
<clipPath id="clip0_2123_5162">
<rect width="20" height="20" fill="white"/>
</clipPath>
</defs>
</svg>
