<svg width="20" height="20" viewBox="0 0 20 20" fill="none" xmlns="http://www.w3.org/2000/svg">
<path d="M19.1666 9.16669H17.4999V7.50001C17.4999 7.03977 17.1268 6.66669 16.6666 6.66669C16.2063 6.66669 15.8333 7.03977 15.8333 7.50001V9.16669H14.1666C13.7063 9.16669 13.3333 9.53977 13.3333 10C13.3333 10.4602 13.7063 10.8333 14.1666 10.8333H15.8333V12.5C15.8333 12.9602 16.2063 13.3333 16.6666 13.3333C17.1268 13.3333 17.4999 12.9602 17.4999 12.5V10.8333H19.1666C19.6268 10.8333 19.9999 10.4602 19.9999 10C19.9999 9.53977 19.6268 9.16669 19.1666 9.16669Z" fill="#94A0B8"/>
<path d="M7.5 10C10.2614 10 12.5 7.76142 12.5 5C12.5 2.23858 10.2614 0 7.5 0C4.73858 0 2.5 2.23858 2.5 5C2.5 7.76142 4.73858 10 7.5 10Z" fill="#94A0B8"/>
<path d="M7.5 11.6667C3.35977 11.6713 0.00460938 15.0265 0 19.1667C0 19.6269 0.373086 20 0.83332 20H14.1666C14.6269 20 15 19.6269 15 19.1667C14.9954 15.0265 11.6402 11.6713 7.5 11.6667Z" fill="#94A0B8"/>
</svg>
