<svg width="20" height="20" viewBox="0 0 20 20" fill="none" xmlns="http://www.w3.org/2000/svg">
<path d="M15 0H5C2.243 0 0 1.86917 0 4.16667V15.8333C0 18.1308 2.243 20 5 20H15C17.757 20 20 18.1308 20 15.8333V4.16667C20 1.86917 17.757 0 15 0ZM8 15.8333C8 16.2933 7.552 16.6667 7 16.6667H5C4.448 16.6667 4 16.2933 4 15.8333V14.1667C4 13.7067 4.448 13.3333 5 13.3333H7C7.552 13.3333 8 13.7067 8 14.1667V15.8333ZM8 10.8333C8 11.2933 7.552 11.6667 7 11.6667H5C4.448 11.6667 4 11.2933 4 10.8333V9.16667C4 8.70667 4.448 8.33333 5 8.33333H7C7.552 8.33333 8 8.70667 8 9.16667V10.8333ZM8 5.83333C8 6.29333 7.552 6.66667 7 6.66667H5C4.448 6.66667 4 6.29333 4 5.83333V4.16667C4 3.70667 4.448 3.33333 5 3.33333H7C7.552 3.33333 8 3.70667 8 4.16667V5.83333ZM15 15.8333H11C9.692 15.8283 9.693 14.1717 11 14.1667H15C16.308 14.1717 16.307 15.8283 15 15.8333ZM15 10.8333H11C9.692 10.8283 9.693 9.17167 11 9.16667H15C16.308 9.17167 16.307 10.8283 15 10.8333ZM15 5.83333H11C9.692 5.82833 9.693 4.17167 11 4.16667H15C16.308 4.17167 16.307 5.82833 15 5.83333Z" fill="#94A0B8"/>
</svg>
