<svg width="19" height="20" viewBox="0 0 19 20" fill="#3563e9" xmlns="http://www.w3.org/2000/svg">
<path fill-rule="evenodd" clip-rule="evenodd" d="M1.36376 13.3649C1.45181 13.0593 1.61038 12.7814 1.8254 12.5556L11.9964 1.8781C13.3233 0.485133 15.4746 0.485133 16.8015 1.8781C18.1284 3.27106 18.1284 5.5295 16.8015 6.92246L16.6512 7.08024L18.396 8.9119C18.7565 9.29033 18.7565 9.90389 18.396 10.2823L13.7807 15.1275C13.4202 15.5059 12.8357 15.5059 12.4752 15.1275C12.1148 14.7491 12.1148 14.1355 12.4752 13.7571L16.4379 9.59711L15.3458 8.45066L6.63048 17.6C6.4569 17.7822 6.25087 17.9258 6.02478 18.023L6.01379 18.0346L6.00913 18.0297C5.96016 18.0502 5.91028 18.0685 5.8596 18.0846L2.71372 19.0836C2.0622 19.2905 1.35508 19.1043 0.873774 18.599C0.392463 18.0937 0.215049 17.3514 0.412133 16.6674L1.36376 13.3649ZM15.3458 5.70982L15.4961 5.55204C16.102 4.91594 16.102 3.88462 15.4961 3.24851C14.8902 2.61241 13.9078 2.61241 13.3018 3.24851L13.1515 3.4063L15.3458 5.70982ZM11.8461 4.77672L14.0404 7.08024L6.11515 15.4001L3.92089 13.0966L11.8461 4.77672ZM2.8214 14.9999L2.89145 14.7567L4.53378 16.4809L4.3022 16.5544L2.17918 17.2286L2.8214 14.9999Z" fill="#3563e9"/>
</svg>
