<svg width="16" height="18" viewBox="0 0 16 18" fill="none" xmlns="http://www.w3.org/2000/svg">
<path d="M8.07216 17.3333C7.96897 17.3333 7.86578 17.3096 7.77266 17.2614L4.77174 15.708C3.92021 15.2667 3.25409 14.7715 2.73394 14.1946C1.59549 12.9329 0.962083 11.3133 0.952016 9.63326L0.91678 4.10355C0.912585 3.46535 1.32451 2.89252 1.9403 2.67679L7.4505 0.755654C7.77769 0.638801 8.14263 0.637166 8.47569 0.749934L14.0069 2.6057C14.626 2.81244 15.0446 3.38118 15.048 4.01856L15.0832 9.55236C15.0941 11.23 14.4826 12.8561 13.3617 14.1317C12.8474 14.7168 12.1872 15.2193 11.3441 15.6688L8.36998 17.2573C8.2777 17.3072 8.17535 17.3325 8.07216 17.3333Z" fill="#94A0B8"/>
<path d="M7.43264 10.9341C7.27156 10.9349 7.11048 10.8769 6.98632 10.7576L5.38896 9.22132C5.14231 8.98271 5.1398 8.59538 5.38393 8.35514C5.62806 8.11408 6.02656 8.11162 6.27405 8.34942L7.42341 9.45421L10.2297 6.68732C10.4747 6.44626 10.8732 6.44381 11.1198 6.6816C11.3673 6.92021 11.3698 7.30836 11.1257 7.54779L7.87644 10.7519C7.75396 10.8728 7.59372 10.9333 7.43264 10.9341Z" fill="white"/>
</svg>
