<svg width="18" height="18" viewBox="0 0 18 18" fill="none" xmlns="http://www.w3.org/2000/svg">
<g clip-path="url(#clip0_654_13614)">
<path d="M9 0C7.21997 0 5.47991 0.527841 3.99987 1.51677C2.51983 2.50571 1.36628 3.91131 0.685088 5.55585C0.00389957 7.20038 -0.17433 9.00998 0.172937 10.7558C0.520204 12.5016 1.37737 14.1053 2.63604 15.364C3.89472 16.6226 5.49836 17.4798 7.24419 17.8271C8.99002 18.1743 10.7996 17.9961 12.4442 17.3149C14.0887 16.6337 15.4943 15.4802 16.4832 14.0001C17.4722 12.5201 18 10.78 18 9C17.9974 6.61384 17.0484 4.32616 15.3611 2.63889C13.6738 0.951621 11.3862 0.00258081 9 0V0ZM9 16.5C7.51664 16.5 6.0666 16.0601 4.83323 15.236C3.59986 14.4119 2.63856 13.2406 2.07091 11.8701C1.50325 10.4997 1.35473 8.99168 1.64411 7.53682C1.9335 6.08197 2.64781 4.74559 3.6967 3.6967C4.7456 2.64781 6.08197 1.9335 7.53683 1.64411C8.99168 1.35472 10.4997 1.50325 11.8701 2.0709C13.2406 2.63856 14.4119 3.59985 15.236 4.83322C16.0601 6.06659 16.5 7.51664 16.5 9C16.4978 10.9885 15.7069 12.8948 14.3009 14.3009C12.8948 15.7069 10.9885 16.4978 9 16.5Z" fill="#F2273F"/>
<path d="M9.00081 4.5C8.8019 4.5 8.61114 4.57902 8.47048 4.71967C8.32983 4.86032 8.25081 5.05109 8.25081 5.25V8.49375L5.72256 10.0778C5.55349 10.1834 5.4333 10.3518 5.38843 10.5461C5.34356 10.7403 5.37769 10.9444 5.48331 11.1135C5.58894 11.2826 5.7574 11.4028 5.95164 11.4476C6.14588 11.4925 6.34999 11.4584 6.51906 11.3528L9.39906 9.55275C9.50788 9.48457 9.59737 9.3896 9.65896 9.27693C9.72055 9.16425 9.75217 9.03765 9.75081 8.90925V5.25C9.75081 5.05109 9.6718 4.86032 9.53114 4.71967C9.39049 4.57902 9.19973 4.5 9.00081 4.5Z" fill="#F2273F"/>
</g>
<defs>
<clipPath id="clip0_654_13614">
<rect width="18" height="18" fill="white"/>
</clipPath>
</defs>
</svg>
