<svg width="51" height="51" viewBox="0 0 51 51" fill="none" xmlns="http://www.w3.org/2000/svg">
<g clip-path="url(#clip0_816_8054)">
<path d="M37.9458 15.3875C37.2563 15.25 36.6917 14.8188 36.4 14.2021C33.1708 7.38752 25.6854 3.57711 18.2042 4.95627C11.3875 6.20627 6.04375 11.6479 4.90417 18.5C4.56667 20.5229 4.59167 22.5479 4.97292 24.5209C5.09792 25.1646 4.82083 25.8813 4.25208 26.3979C1.86667 28.5667 0.5 31.6563 0.5 34.8771C0.5 41.1938 5.63958 46.3354 11.9583 46.3354H34.875C43.4917 46.3354 50.5 39.3271 50.5 30.7104C50.5 23.2834 45.2208 16.8396 37.9458 15.3896V15.3875ZM32.0021 29.0584C31.5958 29.4646 31.0625 29.6688 30.5292 29.6688C29.9958 29.6688 29.4625 29.4646 29.0562 29.0584L25.5 25.5021V35.9188C25.5 37.0709 24.5667 38.0021 23.4167 38.0021C22.2667 38.0021 21.3333 37.0709 21.3333 35.9188V25.5021L17.7771 29.0584C16.9625 29.8729 15.6458 29.8729 14.8313 29.0584C14.0167 28.2438 14.0167 26.9271 14.8313 26.1125L20.4708 20.4729C21.275 19.6688 22.3312 19.2646 23.3875 19.2584L23.4167 19.2521L23.4458 19.2584C24.5042 19.2646 25.5583 19.6688 26.3625 20.4729L32.0021 26.1125C32.8167 26.9271 32.8167 28.2438 32.0021 29.0584Z" fill="#E1E6EF"/>
</g>
<defs>
<clipPath id="clip0_816_8054">
<rect width="50" height="50" fill="white" transform="translate(0.5 0.5)"/>
</clipPath>
</defs>
</svg>
