<svg width="16" height="16" viewBox="0 0 16 16" fill="none" xmlns="http://www.w3.org/2000/svg">
<g clip-path="url(#clip0_897_1854)">
<path fill-rule="evenodd" clip-rule="evenodd" d="M16.0008 8.18126C16.0008 7.61399 15.9489 7.06855 15.8524 6.54492H8.16406V9.63941H12.5574C12.3682 10.6394 11.793 11.4867 10.9285 12.0539V14.0612H13.5667C15.1103 12.6684 16.0008 10.6176 16.0008 8.18126Z" fill="#091A75" fill-opacity="0.9"/>
<path fill-rule="evenodd" clip-rule="evenodd" d="M8.16219 16.0004C10.3663 16.0004 12.2141 15.284 13.5648 14.0622L10.9266 12.055C10.1956 12.535 9.26052 12.8186 8.16219 12.8186C6.03603 12.8186 4.23639 11.4114 3.59446 9.52051H0.867188V11.5932C2.21042 14.2077 4.97109 16.0004 8.16219 16.0004Z" fill="#091A75" fill-opacity="0.9"/>
<path fill-rule="evenodd" clip-rule="evenodd" d="M3.59555 9.51986C3.43229 9.03987 3.33952 8.52715 3.33952 7.99989C3.33952 7.47263 3.43229 6.95991 3.59555 6.47992V4.40723H0.868276C0.3154 5.48721 0 6.709 0 7.99989C0 9.29078 0.3154 10.5126 0.868276 11.5926L3.59555 9.51986Z" fill="#091A75" fill-opacity="0.9"/>
<path fill-rule="evenodd" clip-rule="evenodd" d="M8.16219 3.18176C9.36071 3.18176 10.4368 3.58539 11.2828 4.3781L13.6241 2.0836C12.2104 0.792713 10.3625 0 8.16219 0C4.97109 0 2.21042 1.79269 0.867188 4.40719L3.59446 6.47988C4.23639 4.58901 6.03603 3.18176 8.16219 3.18176Z" fill="#091A75" fill-opacity="0.9"/>
</g>
<defs>
<clipPath id="clip0_897_1854">
<rect width="16" height="16" fill="white"/>
</clipPath>
</defs>
</svg>
