<svg width="14" height="18" viewBox="0 0 14 18" fill="none" xmlns="http://www.w3.org/2000/svg">
<path d="M10.7493 18H3.25301C2.81929 17.9998 2.39075 17.9058 1.99671 17.7246C1.60268 17.5434 1.25245 17.2791 0.970005 16.95C0.691538 16.628 0.485918 16.2497 0.367216 15.8409C0.248514 15.4321 0.219532 15.0025 0.282255 14.5815C0.684939 12.3881 1.85498 10.4096 3.58301 9C1.85495 7.5899 0.685159 5.61081 0.283005 3.417C0.220405 2.99626 0.249379 2.56697 0.367945 2.15846C0.486512 1.74994 0.691877 1.37185 0.970005 1.05C1.25245 0.720859 1.60268 0.456633 1.99671 0.275407C2.39075 0.0941813 2.81929 0.000235381 3.25301 0L10.7493 0C11.1829 0.000384107 11.6114 0.0943966 12.0055 0.275612C12.3995 0.456828 12.7497 0.720975 13.0323 1.05C13.3104 1.37171 13.5159 1.74963 13.6347 2.15799C13.7535 2.56634 13.7829 2.99552 13.7208 3.41625C13.3145 5.61071 12.1421 7.58957 10.4125 9C12.1411 10.4116 13.3122 12.3913 13.717 14.586C13.7792 15.0068 13.7499 15.4362 13.6311 15.8446C13.5123 16.2531 13.3067 16.6312 13.0285 16.953C12.7461 17.281 12.3963 17.5443 12.003 17.725C11.6097 17.9056 11.1821 17.9994 10.7493 18V18ZM10.7493 1.5H3.25301C3.03545 1.49987 2.82044 1.5467 2.62265 1.63731C2.42487 1.72792 2.24898 1.86016 2.10701 2.025C1.96837 2.18283 1.86592 2.36906 1.80684 2.57065C1.74777 2.77224 1.73349 2.98431 1.765 3.192C2.047 5.067 3.20801 6.822 5.21501 8.40975C5.30369 8.47997 5.37534 8.56933 5.42459 8.67116C5.47385 8.77299 5.49943 8.88464 5.49943 8.99775C5.49943 9.11086 5.47385 9.22251 5.42459 9.32434C5.37534 9.42617 5.30369 9.51553 5.21501 9.58575C3.20801 11.175 2.04925 12.9315 1.765 14.8057C1.73315 15.0138 1.74726 15.2263 1.80634 15.4283C1.86543 15.6303 1.96806 15.8169 2.10701 15.975C2.24898 16.1398 2.42487 16.2721 2.62265 16.3627C2.82044 16.4533 3.03545 16.5001 3.25301 16.5H10.7493C10.9668 16.5002 11.1818 16.4534 11.3796 16.3628C11.5774 16.2721 11.7533 16.1399 11.8953 15.975C12.0339 15.8175 12.1363 15.6315 12.1954 15.4301C12.2545 15.2288 12.2688 15.017 12.2373 14.8095C11.9575 12.9443 10.7973 11.1878 8.78725 9.588C8.69912 9.51775 8.62795 9.42854 8.57903 9.327C8.53012 9.22547 8.50471 9.11421 8.50471 9.0015C8.50471 8.88879 8.53012 8.77753 8.57903 8.676C8.62795 8.57446 8.69912 8.48525 8.78725 8.415C10.798 6.81525 11.9583 5.05875 12.2373 3.19275C12.2686 2.98466 12.2539 2.77222 12.1942 2.57044C12.1345 2.36865 12.0311 2.18245 11.8915 2.025C11.75 1.8606 11.5747 1.72862 11.3776 1.63802C11.1805 1.54743 10.9662 1.50036 10.7493 1.5V1.5ZM9.76 15H4.23775C4.11504 14.9999 3.99421 14.9698 3.88587 14.9122C3.77753 14.8545 3.68498 14.7712 3.61635 14.6695C3.54771 14.5677 3.50509 14.4507 3.49222 14.3287C3.47934 14.2066 3.49661 14.0833 3.5425 13.9695C4.12981 12.7013 5.02466 11.6 6.14576 10.7655L6.53425 10.4565C6.66697 10.3509 6.83155 10.2935 7.00113 10.2935C7.17071 10.2935 7.33529 10.3509 7.468 10.4565L7.84975 10.761C8.96927 11.5988 9.86411 12.7005 10.4545 13.968C10.5007 14.0818 10.5182 14.2053 10.5055 14.3274C10.4928 14.4496 10.4503 14.5668 10.3818 14.6687C10.3132 14.7706 10.2206 14.8542 10.1122 14.9119C10.0038 14.9697 9.88285 14.9999 9.76 15V15ZM5.52476 13.5H8.47075C8.04283 12.9422 7.54871 12.4385 6.99925 12C6.44737 12.4368 5.95206 12.9407 5.52476 13.5V13.5Z" fill="#F2273F"/>
</svg>
