<svg width="20" height="20" viewBox="0 0 20 20" fill="none" xmlns="http://www.w3.org/2000/svg">
<path d="M8.73539 16.25C8.4041 16.2499 8.08639 16.1183 7.85206 15.8842L4.03039 12.0625C3.48436 11.515 3.17773 10.7732 3.17773 9.99998C3.17773 9.22672 3.48436 8.48501 4.03039 7.93748L7.85206 4.11582C8.08655 3.88143 8.40455 3.7498 8.7361 3.74988C9.06765 3.74996 9.38559 3.88174 9.61997 4.11623C9.85436 4.35073 9.98599 4.66873 9.98591 5.00028C9.98583 5.33183 9.85405 5.64977 9.61956 5.88415L5.79789 9.70498C5.75909 9.74369 5.7283 9.78967 5.7073 9.84029C5.68629 9.89091 5.67548 9.94518 5.67548 9.99998C5.67548 10.0548 5.68629 10.1091 5.7073 10.1597C5.7283 10.2103 5.75909 10.2563 5.79789 10.295L9.61956 14.1158C9.79449 14.2906 9.91363 14.5134 9.96191 14.756C10.0102 14.9985 9.98543 15.2499 9.89077 15.4784C9.79612 15.7069 9.63582 15.9022 9.43015 16.0395C9.22448 16.1768 8.9827 16.2501 8.73539 16.25Z" fill="#3563E9"/>
<path d="M14.5681 16.25C14.2368 16.2499 13.9191 16.1183 13.6848 15.8842L8.68476 10.8842C8.5686 10.7681 8.47646 10.6302 8.41359 10.4785C8.35072 10.3268 8.31836 10.1642 8.31836 9.99998C8.31836 9.83576 8.35072 9.67315 8.41359 9.52144C8.47646 9.36974 8.5686 9.2319 8.68476 9.11582L13.6848 4.11582C13.8009 3.99976 13.9387 3.90771 14.0904 3.84492C14.2421 3.78214 14.4046 3.74984 14.5688 3.74988C14.733 3.74992 14.8955 3.78229 15.0472 3.84515C15.1988 3.90801 15.3366 4.00012 15.4527 4.11623C15.5687 4.23234 15.6608 4.37018 15.7236 4.52186C15.7864 4.67355 15.8187 4.83611 15.8186 5.00028C15.8186 5.16444 15.7862 5.327 15.7233 5.47865C15.6605 5.63031 15.5684 5.76809 15.4523 5.88415L11.3331 9.99998L15.4489 14.1158C15.6237 14.2904 15.7427 14.5129 15.7911 14.7551C15.8395 14.9974 15.815 15.2485 15.7208 15.4769C15.6265 15.7052 15.4668 15.9005 15.2616 16.0381C15.0564 16.1757 14.8151 16.2494 14.5681 16.25Z" fill="#3563E9"/>
</svg>
