<svg width="30" height="30" viewBox="0 0 30 30" fill="none" xmlns="http://www.w3.org/2000/svg">
<g clip-path="url(#clip0_752_13003)">
<path fill-rule="evenodd" clip-rule="evenodd" d="M14.8373 24.1714C14.7356 24.1714 14.6407 24.1442 14.5525 24.0968L13.6506 23.5611C13.515 23.4865 13.5828 23.4593 13.6235 23.4458C13.8066 23.3848 13.8405 23.3712 14.0304 23.2627C14.0507 23.2491 14.0778 23.2559 14.0982 23.2695L14.7899 23.6831C14.817 23.6967 14.8509 23.6967 14.8712 23.6831L17.5769 22.1167C17.6041 22.1031 17.6176 22.076 17.6176 22.0421V18.9159C17.6176 18.882 17.6041 18.8549 17.5769 18.8414L14.8712 17.2817C14.8441 17.2681 14.8102 17.2681 14.7899 17.2817L12.0842 18.8414C12.057 18.8549 12.0435 18.8888 12.0435 18.9159V22.0421C12.0435 22.0692 12.057 22.1031 12.0842 22.1167L12.8233 22.5439C13.2234 22.7473 13.4743 22.51 13.4743 22.2726V19.1872C13.4743 19.1465 13.5082 19.1058 13.5557 19.1058H13.9015C13.9422 19.1058 13.9829 19.1397 13.9829 19.1872V22.2726C13.9829 22.8083 13.6913 23.1203 13.1827 23.1203C13.0267 23.1203 12.9047 23.1203 12.5588 22.9508L11.8468 22.5439C11.6705 22.4422 11.562 22.2523 11.562 22.0489V18.9227C11.562 18.7193 11.6705 18.5294 11.8468 18.4277L14.5525 16.8612C14.722 16.7663 14.9526 16.7663 15.1221 16.8612L17.8278 18.4277C18.0041 18.5294 18.1126 18.7193 18.1126 18.9227V22.0489C18.1126 22.2523 18.0041 22.4422 17.8278 22.5439L15.1221 24.1103C15.034 24.151 14.9323 24.1714 14.8373 24.1714ZM15.6714 22.0217C14.4847 22.0217 14.2406 21.4792 14.2406 21.0181C14.2406 20.9774 14.2745 20.9367 14.322 20.9367H14.6746C14.7153 20.9367 14.7492 20.9639 14.7492 21.0046C14.8034 21.364 14.9594 21.5403 15.6782 21.5403C16.2478 21.5403 16.4919 21.4114 16.4919 21.1063C16.4919 20.93 16.4241 20.8011 15.5358 20.713C14.7966 20.6384 14.3355 20.4756 14.3355 19.8857C14.3355 19.3364 14.7966 19.0109 15.5697 19.0109C16.4377 19.0109 16.8649 19.3093 16.9192 19.9602C16.9192 19.9806 16.9124 20.0009 16.8988 20.0213C16.8852 20.0348 16.8649 20.0484 16.8446 20.0484H16.4919C16.458 20.0484 16.4241 20.0213 16.4173 19.9874C16.336 19.6144 16.1258 19.4923 15.5697 19.4923C14.9458 19.4923 14.8712 19.7093 14.8712 19.8721C14.8712 20.0687 14.9594 20.1298 15.8003 20.2383C16.6343 20.3468 17.0277 20.5027 17.0277 21.0859C17.0209 21.6827 16.5326 22.0217 15.6714 22.0217Z" fill="#94A0B8"/>
<path fill-rule="evenodd" clip-rule="evenodd" d="M6.44213 11.9448C6.44213 11.8227 6.37432 11.7074 6.26582 11.6464L3.3906 9.9918C3.34313 9.96468 3.28888 9.95112 3.23463 9.94434H3.2075C3.15326 9.94434 3.09901 9.96468 3.05154 9.9918L0.176311 11.6464C0.0678119 11.7074 0 11.8227 0 11.9448L0.00678119 16.3933C0.00678119 16.4543 0.0406872 16.5153 0.0949367 16.5424C0.149186 16.5763 0.216998 16.5763 0.264467 16.5424L1.97333 15.5659C2.08183 15.5049 2.14964 15.3896 2.14964 15.2676V13.1857C2.14964 13.0637 2.21745 12.9484 2.32595 12.8874L3.05154 12.4669C3.10579 12.433 3.16682 12.4195 3.22785 12.4195C3.28888 12.4195 3.34991 12.433 3.39738 12.4669L4.12297 12.8874C4.23147 12.9484 4.29928 13.0637 4.29928 13.1857V15.2676C4.29928 15.3896 4.36709 15.5049 4.47559 15.5659L6.18445 16.5424C6.2387 16.5763 6.30651 16.5763 6.36076 16.5424C6.41501 16.5153 6.44892 16.4543 6.44892 16.3933L6.44213 11.9448Z" fill="#94A0B8"/>
<path fill-rule="evenodd" clip-rule="evenodd" d="M20.262 5.82112C20.2078 5.794 20.14 5.794 20.0925 5.82112C20.0383 5.85503 20.0044 5.90928 20.0044 5.97031V10.3781C20.0044 10.4188 19.984 10.4595 19.9433 10.4866C19.9026 10.5069 19.862 10.5069 19.8213 10.4866L19.1025 10.0729C18.994 10.0119 18.8651 10.0119 18.7566 10.0729L15.8814 11.7343C15.7729 11.7954 15.7051 11.9106 15.7051 12.0327V15.3487C15.7051 15.4708 15.7729 15.586 15.8814 15.6471L18.7566 17.3085C18.8651 17.3695 18.994 17.3695 19.1025 17.3085L21.9777 15.6471C22.0862 15.586 22.154 15.4708 22.154 15.3487V7.08243C22.154 6.95358 22.0862 6.8383 21.9777 6.77727L20.262 5.82112ZM19.9976 14.2569C19.9976 14.2908 19.984 14.318 19.9569 14.3315L18.9736 14.9011C18.9465 14.9147 18.9126 14.9147 18.8854 14.9011L17.9022 14.3315C17.875 14.318 17.8615 14.2841 17.8615 14.2569V13.1177C17.8615 13.0838 17.875 13.0567 17.9022 13.0431L18.8854 12.4735C18.9126 12.4599 18.9465 12.4599 18.9736 12.4735L19.9569 13.0431C19.984 13.0567 19.9976 13.0906 19.9976 13.1177V14.2569Z" fill="#94A0B8"/>
<path fill-rule="evenodd" clip-rule="evenodd" d="M29.8304 13.0904C29.9389 13.0294 29.9999 12.9141 29.9999 12.792V11.9851C29.9999 11.863 29.9321 11.7477 29.8304 11.6867L26.9755 10.0321C26.867 9.97107 26.7382 9.97107 26.6297 10.0321L23.7544 11.6935C23.6459 11.7545 23.5781 11.8698 23.5781 11.9919V15.3079C23.5781 15.4299 23.6459 15.5452 23.7544 15.6062L26.6093 17.2337C26.7178 17.2948 26.8467 17.2948 26.9484 17.2337L28.6776 16.2708C28.7318 16.2437 28.7657 16.1826 28.7657 16.1216C28.7657 16.0606 28.7318 15.9996 28.6776 15.9724L25.7888 14.311C25.7345 14.2771 25.7006 14.2229 25.7006 14.1618V13.1243C25.7006 13.0633 25.7345 13.0023 25.7888 12.9751L26.6907 12.4598C26.7449 12.4259 26.8128 12.4259 26.867 12.4598L27.7689 12.9751C27.8232 13.009 27.8571 13.0633 27.8571 13.1243V13.9381C27.8571 13.9991 27.891 14.0601 27.9452 14.0873C27.9995 14.1212 28.0673 14.1212 28.1215 14.0873L29.8304 13.0904Z" fill="#94A0B8"/>
<path fill-rule="evenodd" clip-rule="evenodd" d="M26.7585 12.934C26.7788 12.9204 26.8059 12.9204 26.8263 12.934L27.3756 13.2527C27.3959 13.2663 27.4095 13.2866 27.4095 13.3137V13.9512C27.4095 13.9783 27.3959 13.9986 27.3756 14.0122L26.8263 14.3309C26.8059 14.3445 26.7788 14.3445 26.7585 14.3309L26.2092 14.0122C26.1889 13.9986 26.1753 13.9783 26.1753 13.9512V13.3137C26.1753 13.2866 26.1889 13.2663 26.2092 13.2527L26.7585 12.934Z" fill="#5F6C85"/>
<path fill-rule="evenodd" clip-rule="evenodd" d="M11.2501 10.0458C11.1416 9.98474 11.0128 9.98474 10.9043 10.0458L8.04941 11.6936C7.94091 11.7546 7.87988 11.8699 7.87988 11.992V15.2944C7.87988 15.4165 7.94769 15.5318 8.04941 15.5928L10.9043 17.2406C11.0128 17.3017 11.1416 17.3017 11.2501 17.2406L14.105 15.5928C14.2135 15.5318 14.2745 15.4165 14.2745 15.2944V11.992C14.2745 11.8699 14.2067 11.7546 14.105 11.6936L11.2501 10.0458Z" fill="white"/>
<path fill-rule="evenodd" clip-rule="evenodd" d="M11.2501 10.0458C11.1416 9.98474 11.0128 9.98474 10.9043 10.0458L8.04941 11.6936C7.94091 11.7546 7.87988 11.8699 7.87988 11.992V15.2944C7.87988 15.4165 7.94769 15.5318 8.04941 15.5928L10.9043 17.2406C11.0128 17.3017 11.1416 17.3017 11.2501 17.2406L14.105 15.5928C14.2135 15.5318 14.2745 15.4165 14.2745 15.2944V11.992C14.2745 11.8699 14.2067 11.7546 14.105 11.6936L11.2501 10.0458Z" fill="url(#paint0_linear_752_13003)"/>
<mask id="mask0_752_13003" style="mask-type:luminance" maskUnits="userSpaceOnUse" x="7" y="10" width="8" height="8">
<path fill-rule="evenodd" clip-rule="evenodd" d="M11.2501 10.0458C11.1416 9.98474 11.0128 9.98474 10.9043 10.0458L8.04941 11.6936C7.94091 11.7546 7.87988 11.8699 7.87988 11.992V15.2944C7.87988 15.4165 7.94769 15.5318 8.04941 15.5928L10.9043 17.2406C11.0128 17.3017 11.1416 17.3017 11.2501 17.2406L14.105 15.5928C14.2135 15.5318 14.2745 15.4165 14.2745 15.2944V11.992C14.2745 11.8699 14.2067 11.7546 14.105 11.6936L11.2501 10.0458Z" fill="white"/>
</mask>
<g mask="url(#mask0_752_13003)">
<path fill-rule="evenodd" clip-rule="evenodd" d="M14.1118 11.6935L11.2434 10.0456C11.2162 10.0321 11.1823 10.0185 11.1552 10.0117L7.94092 15.518C7.96804 15.552 8.00195 15.5791 8.03585 15.5994L10.9043 17.2473C10.9857 17.2947 11.0806 17.3083 11.1688 17.2812L14.1864 11.7613C14.1661 11.7341 14.1389 11.7138 14.1118 11.6935Z" fill="url(#paint1_linear_752_13003)"/>
</g>
<mask id="mask1_752_13003" style="mask-type:luminance" maskUnits="userSpaceOnUse" x="7" y="10" width="8" height="8">
<path fill-rule="evenodd" clip-rule="evenodd" d="M11.2501 10.0458C11.1416 9.98474 11.0128 9.98474 10.9043 10.0458L8.04941 11.6936C7.94091 11.7546 7.87988 11.8699 7.87988 11.992V15.2944C7.87988 15.4165 7.94769 15.5318 8.04941 15.5928L10.9043 17.2406C11.0128 17.3017 11.1416 17.3017 11.2501 17.2406L14.105 15.5928C14.2135 15.5318 14.2745 15.4165 14.2745 15.2944V11.992C14.2745 11.8699 14.2067 11.7546 14.105 11.6936L11.2501 10.0458Z" fill="white"/>
</mask>
<g mask="url(#mask1_752_13003)">
<path fill-rule="evenodd" clip-rule="evenodd" d="M14.2948 15.2942V11.9918C14.2948 11.8697 14.2202 11.7544 14.1117 11.6934L11.2433 10.0456C11.2094 10.0252 11.1755 10.0117 11.1348 10.0049L14.2745 15.3688C14.288 15.3485 14.2948 15.3213 14.2948 15.2942Z" fill="#CBD2E1"/>
<path fill-rule="evenodd" clip-rule="evenodd" d="M8.03563 11.6933C7.92713 11.7543 7.85254 11.8696 7.85254 11.9917V15.2941C7.85254 15.4162 7.93391 15.5315 8.03563 15.5925L10.9041 17.2403C10.9719 17.281 11.0465 17.2946 11.1279 17.281L8.05597 11.6865L8.03563 11.6933Z" fill="#CBD2E1"/>
<path fill-rule="evenodd" clip-rule="evenodd" d="M14.1185 15.5929C14.1999 15.5454 14.2609 15.4641 14.288 15.3759L11.1415 10.0052C11.0602 9.99163 10.972 9.99841 10.8974 10.0459L8.04932 11.6869L11.1212 17.2882C11.1619 17.2814 11.2094 17.2679 11.25 17.2475L14.1185 15.5929Z" fill="#94A0B8"/>
<path fill-rule="evenodd" clip-rule="evenodd" d="M14.1184 15.5929L11.2568 17.2408C11.2161 17.2611 11.1754 17.2747 11.1279 17.2814L11.1822 17.3832L14.3558 15.5455V15.5048L14.2744 15.3691C14.2608 15.4641 14.1998 15.5455 14.1184 15.5929Z" fill="url(#paint2_linear_752_13003)"/>
<path fill-rule="evenodd" clip-rule="evenodd" d="M14.1184 15.5929L11.2568 17.2408C11.2161 17.2611 11.1754 17.2747 11.1279 17.2814L11.1822 17.3832L14.3558 15.5455V15.5048L14.2744 15.3691C14.2608 15.4641 14.1998 15.5455 14.1184 15.5929Z" fill="#94A0B8"/>
</g>
</g>
<defs>
<linearGradient id="paint0_linear_752_13003" x1="10.4606" y1="10.3479" x2="7.42173" y2="14.0255" gradientUnits="userSpaceOnUse">
<stop stop-color="#41873F"/>
<stop offset="0.3288" stop-color="#418B3D"/>
<stop offset="0.6352" stop-color="#419637"/>
<stop offset="0.9319" stop-color="#3FA92D"/>
<stop offset="1" stop-color="#3FAE2A"/>
</linearGradient>
<linearGradient id="paint1_linear_752_13003" x1="12.3309" y1="18.1533" x2="19.9325" y2="15.1165" gradientUnits="userSpaceOnUse">
<stop offset="0.1376" stop-color="#41873F"/>
<stop offset="0.4032" stop-color="#54A044"/>
<stop offset="0.7136" stop-color="#66B848"/>
<stop offset="0.9081" stop-color="#6CC04A"/>
</linearGradient>
<linearGradient id="paint2_linear_752_13003" x1="7.77546" y1="18.4426" x2="14.3815" y2="18.4426" gradientUnits="userSpaceOnUse">
<stop offset="0.0919165" stop-color="#6CC04A"/>
<stop offset="0.2864" stop-color="#66B848"/>
<stop offset="0.5968" stop-color="#54A044"/>
<stop offset="0.8624" stop-color="#41873F"/>
</linearGradient>
<clipPath id="clip0_752_13003">
<rect width="30" height="30" fill="white"/>
</clipPath>
</defs>
</svg>
