<svg width="30" height="30" viewBox="0 0 30 30" fill="none" xmlns="http://www.w3.org/2000/svg">
<path d="M24.666 10.2918C24.3548 10.1847 24.0323 10.0834 23.7003 9.98751C23.7549 9.76478 23.805 9.54493 23.8495 9.32882C24.5805 5.78026 24.1025 2.92151 22.4704 1.98029C20.9054 1.07779 18.3459 2.01879 15.7609 4.26841C15.5123 4.48473 15.263 4.71376 15.0139 4.9538C14.8479 4.79498 14.6821 4.64151 14.5168 4.49472C11.8077 2.08928 9.09219 1.0756 7.46163 2.01954C5.89809 2.92466 5.43506 5.61216 6.09311 8.97516C6.15665 9.29999 6.23093 9.63171 6.31493 9.96898C5.93061 10.0781 5.55959 10.1944 5.20459 10.3181C2.02844 11.4255 0 13.1609 0 14.9611C0 16.8203 2.17753 18.6851 5.48574 19.8159C5.74681 19.9051 6.01771 19.9895 6.29688 20.0696C6.20626 20.4343 6.12744 20.7918 6.06128 21.1404C5.43384 24.4451 5.92383 27.0691 7.48321 27.9685C9.0939 28.8973 11.7971 27.9426 14.4293 25.6417C14.6374 25.4598 14.8462 25.2669 15.0553 25.0648C15.3264 25.3258 15.5971 25.5729 15.8664 25.8047C18.416 27.9987 20.9341 28.8847 22.4921 27.9827C24.1012 27.0512 24.6241 24.2324 23.9452 20.8029C23.8933 20.541 23.833 20.2734 23.7652 20.0011C23.9551 19.9449 24.1414 19.887 24.3231 19.8268C27.7623 18.6873 30 16.8451 30 14.9611C30 13.1544 27.9061 11.4072 24.666 10.2918ZM23.9201 18.6103C23.756 18.6646 23.5877 18.7171 23.4162 18.768C23.0365 17.566 22.5241 16.2879 21.897 14.9673C22.4954 13.6783 22.988 12.4165 23.3571 11.2223C23.664 11.3111 23.9618 11.4048 24.2489 11.5036C27.025 12.4593 28.7184 13.8723 28.7184 14.9611C28.7184 16.1208 26.8896 17.6263 23.9201 18.6103ZM22.6879 21.0518C22.9882 22.5683 23.031 23.9394 22.8322 25.0112C22.6535 25.9743 22.2942 26.6165 21.8499 26.8736C20.9044 27.4209 18.8826 26.7095 16.7022 24.8332C16.4522 24.6181 16.2004 24.3884 15.9478 24.1453C16.7932 23.2208 17.638 22.1461 18.4625 20.9524C19.9128 20.8237 21.283 20.6133 22.5256 20.3261C22.5867 20.573 22.6411 20.8151 22.6879 21.0518ZM10.2277 26.7791C9.30397 27.1053 8.56828 27.1146 8.12357 26.8582C7.17728 26.3124 6.78388 24.2056 7.3205 21.3795C7.38196 21.0558 7.45512 20.7233 7.53944 20.3835C8.76837 20.6553 10.1285 20.8508 11.5823 20.9687C12.4124 22.1367 13.2816 23.2103 14.1576 24.1503C13.9662 24.3351 13.7755 24.511 13.586 24.6767C12.422 25.6941 11.2556 26.416 10.2277 26.7791ZM5.90023 18.6032C4.4374 18.1032 3.22934 17.4534 2.40127 16.7443C1.6572 16.107 1.28154 15.4744 1.28154 14.9611C1.28154 13.8687 2.91017 12.4753 5.62645 11.5283C5.95603 11.4134 6.30105 11.3051 6.65909 11.2034C7.03449 12.4245 7.52694 13.7012 8.12122 14.9923C7.51925 16.3025 7.0198 17.5996 6.64072 18.835C6.38547 18.7617 6.13818 18.6844 5.90023 18.6032ZM7.35083 8.72904C6.78703 5.8477 7.16147 3.67413 8.10371 3.1287C9.10735 2.54766 11.3267 3.3761 13.6658 5.45308C13.8153 5.58583 13.9654 5.72478 14.116 5.86853C13.2443 6.80446 12.383 7.87 11.5603 9.03112C10.1494 9.1619 8.79881 9.37197 7.55706 9.65328C7.47899 9.33924 7.40983 9.03069 7.35083 8.72904ZM20.2915 11.9244C19.9946 11.4117 19.6899 10.9111 19.3792 10.4241C20.3364 10.5451 21.2535 10.7057 22.1147 10.9023C21.8561 11.731 21.5339 12.5974 21.1545 13.4856C20.8824 12.9689 20.5946 12.448 20.2915 11.9244ZM15.0143 6.78444C15.6054 7.42486 16.1974 8.13988 16.7797 8.91567C16.1929 8.88796 15.5989 8.87354 15 8.87354C14.4067 8.87354 13.8171 8.88764 13.234 8.91487C13.8168 8.14629 14.4139 7.43223 15.0143 6.78444ZM9.70335 11.9333C9.40682 12.4475 9.12434 12.9656 8.85648 13.4846C8.48327 12.5995 8.164 11.7291 7.90319 10.8887C8.75914 10.6972 9.6719 10.5406 10.623 10.4219C10.3079 10.9133 10.0007 11.4176 9.70335 11.9332V11.9333ZM10.6504 19.5917C9.66773 19.4821 8.74125 19.3336 7.88552 19.1473C8.15049 18.2919 8.47681 17.403 8.85792 16.4988C9.12647 17.0175 9.41008 17.5358 9.70842 18.0511H9.70847C10.0124 18.576 10.3272 19.0903 10.6504 19.5917ZM15.0498 23.2281C14.4423 22.5727 13.8365 21.8478 13.2448 21.068C13.8192 21.0905 14.4048 21.102 15 21.102C15.6115 21.102 16.216 21.0883 16.8109 21.0618C16.2267 21.8556 15.6369 22.5817 15.0498 23.2281ZM21.1667 16.4527C21.5677 17.3666 21.9057 18.2509 22.1741 19.0918C21.3043 19.2902 20.3652 19.45 19.3757 19.5688C19.6871 19.0753 19.9945 18.566 20.2966 18.0422C20.6022 17.5123 20.8924 16.9816 21.1667 16.4527ZM19.1865 17.402C18.7175 18.2151 18.2361 18.9913 17.7473 19.724C16.8571 19.7877 15.9374 19.8205 15 19.8205C14.0664 19.8205 13.1583 19.7915 12.2838 19.7347C11.7754 18.9924 11.2834 18.2139 10.8175 17.409H10.8176C10.3528 16.6063 9.92512 15.7968 9.53754 14.9919C9.92501 14.185 10.3516 13.3746 10.8137 12.5734L10.8136 12.5735C11.2769 11.7701 11.7645 10.9954 12.2682 10.2578C13.1604 10.1903 14.0753 10.1551 14.9999 10.1551H15C15.9288 10.1551 16.8449 10.1906 17.7368 10.2586C18.2329 10.9909 18.7171 11.7631 19.1823 12.5666C19.6527 13.3791 20.0848 14.1841 20.4755 14.9736C20.0859 15.7767 19.6548 16.5898 19.1865 17.402ZM21.8302 3.09058C22.8348 3.66991 23.2255 6.00635 22.5943 9.07016C22.5541 9.26565 22.5087 9.46478 22.4595 9.66658C21.2149 9.37939 19.8633 9.16569 18.4483 9.03294C17.6239 7.85905 16.7697 6.79186 15.9123 5.86794C16.1428 5.64617 16.373 5.43471 16.6023 5.23516C18.8171 3.3077 20.8871 2.5467 21.8302 3.09058ZM15 12.2822C16.4795 12.2822 17.6789 13.4816 17.6789 14.9611C17.6789 16.4406 16.4795 17.64 15 17.64C13.5205 17.64 12.3211 16.4406 12.3211 14.9611C12.3211 13.4816 13.5205 12.2822 15 12.2822Z" fill="#94A0B8"/>
</svg>
